<?xml version="1.0" encoding="UTF-8"?>
<svg width="72px" height="72px" viewBox="0 0 72 72" version="1.1" xmlns="http://www.w3.org/2000/svg" xmlns:xlink="http://www.w3.org/1999/xlink">
    <!-- Generator: Sketch 51.1 (57501) - http://www.bohemiancoding.com/sketch -->
    <title>Group 7</title>
    <desc>Created with Sketch.</desc>
    <defs></defs>
    <g id="视觉" stroke="none" stroke-width="1" fill="none" fill-rule="evenodd">
        <g id="切图" transform="translate(-169.000000, -65.000000)">
            <g id="Group-7" transform="translate(170.000000, 66.000000)">
                <g id="icon1" stroke="#DDDDDD">
                    <circle id="Oval-3" cx="35" cy="35" r="35"></circle>
                </g>
                <g id="店铺经营贷" transform="translate(17.000000, 17.000000)" fill="#000000" fill-rule="nonzero">
                    <path d="M35.9186911,9.84138762 C35.9186911,9.47859759 35.8279936,9.11580762 35.6465986,8.75301759 C35.6465986,8.75301759 31.383816,1.49721735 31.383816,1.4518686 C30.9756772,0.680939805 30.5675384,0.0460572991 28.7535884,0.0460573478 L7.25828025,0.0460573478 C5.76177145,0.0460573478 5.0815402,0.680939854 4.49200639,1.58791489 L0.36527003,8.61697135 C0.138526295,8.97976137 0.0478287524,9.38790015 0.0478287524,9.84138762 L0.0478287524,16.1448641 C0.0478287524,19.1378817 2.36061509,21.5413655 5.21758644,21.5413655 C6.94083897,21.5413655 8.52804531,20.6797392 9.48036904,19.1832304 C10.4326928,20.6797392 12.0198991,21.5413655 13.7431517,21.5413655 C15.4664042,21.5413655 17.0536106,20.6797392 18.0059343,19.1832304 C18.9582581,20.6797392 20.5454644,21.5413655 22.268717,21.5413655 C23.9919695,21.5413655 25.5791758,20.6797392 26.5314996,19.1832304 C27.4838233,20.6797392 29.0710296,21.5413655 30.7942822,21.5413655 C33.6512536,21.5413655 35.9640398,19.0925329 35.9640398,16.1448641 L35.9186911,9.84138762 C35.9186911,9.88673636 35.9186911,9.84138762 35.9186911,9.84138762 Z M6.12456143,2.58558742 C6.39665396,2.1320999 6.71409519,1.95070491 7.25828025,1.95070487 L28.7082397,1.95070487 C29.2524247,1.95070487 29.4791684,1.99605361 29.8419584,2.58558742 C30.4768409,3.67395745 32.3361398,6.71232378 32.6082322,7.21116005 L3.35828762,7.21116005 C3.6757289,6.71232378 5.48967892,3.6286087 6.12456143,2.58558742 Z M34.1500898,16.1448641 C34.1500898,18.0948604 32.653581,19.6820667 30.7942822,19.6820667 C28.9349834,19.6820667 27.4384746,18.0948604 27.4384746,16.1448641 L27.4384746,15.237889 C27.4384746,14.7390528 27.0303358,14.2855653 26.5314996,14.2855653 C26.0326633,14.2855653 25.6245245,14.693704 25.6245245,15.237889 L25.6245245,16.1448641 C25.6245245,18.0948604 24.1280157,19.6820667 22.268717,19.6820667 C20.4094181,19.6820667 18.9129093,18.0948604 18.9129093,16.1448641 L18.9129093,15.237889 C18.9129093,14.7390528 18.5047706,14.2855653 18.0059343,14.2855653 C17.507098,14.2855653 17.0989593,14.693704 17.0989593,15.237889 L17.0989593,16.1448641 C17.0989593,18.0948604 15.6024505,19.6820667 13.7431517,19.6820667 C11.8838529,19.6820667 10.3873441,18.0948604 10.3873441,16.1448641 L10.3873441,15.237889 C10.3873441,14.7390528 9.97920531,14.2855653 9.48036904,14.2855653 C8.98153278,14.2855653 8.57339401,14.693704 8.57339401,15.237889 L8.57339401,16.1448641 C8.57339401,18.0948604 7.07688521,19.6820667 5.21758644,19.6820667 C3.35828762,19.6820667 1.86177883,18.0948604 1.86177883,16.1448641 L1.86177883,9.88673636 C1.86177883,9.43324884 2.2699176,9.07045882 2.72340512,9.07045887 L33.2884635,9.07045887 C33.7419511,9.07045887 34.1047411,9.43324889 34.1500898,9.88673636 L34.1500898,16.1448641 Z M29.1163784,35.9622684 C25.352432,35.9622684 22.3140657,32.9239021 22.3140657,29.1599557 C22.3140657,25.3960093 25.352432,22.357643 29.1163784,22.357643 C32.8803247,22.357643 35.9186911,25.3960093 35.9186911,29.1599557 C35.9640398,32.8785533 32.8803248,35.9622684 29.1163784,35.9622684 Z M29.1163784,23.7634543 C26.1687095,23.7634543 23.7652257,26.1669381 23.7652257,29.114607 C23.7652257,32.0622758 26.1687096,34.4657596 29.1163784,34.4657596 C32.0640472,34.4657596 34.4675311,32.0622758 34.4675311,29.114607 C34.5128798,26.1669381 32.109396,23.7634543 29.1163784,23.7634543 Z" id="Shape"></path>
                    <path d="M23.6745283,34.1936671 L4.53735514,34.1936671 C4.03851887,34.1936671 3.6303801,33.7855283 3.6303801,33.2866921 L3.6303801,24.3983368 C3.6303801,23.8995005 3.22224133,23.4913618 2.72340512,23.4913618 C2.2245689,23.4913619 1.81643008,23.8995006 1.81643008,24.3983368 L1.81643008,33.2866921 C1.81643008,34.7378521 2.9954976,35.9622684 4.49200639,35.9622684 L25.7605708,35.9622684 C24.989642,35.4634322 24.3094108,34.8738984 23.6745283,34.1936671 Z M29.2977734,33.0145996 C29.0256809,33.0145996 28.8442859,32.7878559 28.8442859,32.5611121 L28.8442859,28.3890269 C28.8442859,28.1169344 29.0710296,27.9355394 29.2977734,27.9355394 C29.5698659,27.9355394 29.7512609,28.1622831 29.7512609,28.3890269 L29.7512609,32.5611121 C29.7512609,32.7878558 29.5698659,33.0145996 29.2977734,33.0145996 Z" id="Shape"></path>
                    <path d="M31.6105597,31.1553008 L26.9849871,31.1553008 C26.7128945,31.1553008 26.5314996,30.928557 26.5314996,30.7018133 C26.5314996,30.4297207 26.7582433,30.2483257 26.9849871,30.2483257 L31.6105597,30.2483257 C31.8826522,30.2483257 32.0640472,30.4750695 32.0640472,30.7018133 C32.0640472,30.928557 31.8373035,31.1553008 31.6105597,31.1553008 Z M31.6105597,28.8425144 L26.9849871,28.8425144 C26.7128945,28.8425144 26.5314996,28.6157707 26.5314996,28.3890269 C26.5314996,28.1169344 26.7582433,27.9355394 26.9849871,27.9355394 L31.6105597,27.9355394 C31.8826522,27.9355394 32.0640472,28.1622831 32.0640472,28.3890269 C32.0640472,28.6157707 31.8373035,28.8425144 31.6105597,28.8425144 Z" id="Shape"></path>
                    <path d="M29.2977734,28.8425144 C29.1617272,28.8425144 29.0710297,28.7971657 28.9803321,28.7064682 L26.7128946,26.4390306 C26.5314996,26.2576356 26.5314996,25.9855431 26.7128946,25.8041481 C26.8942896,25.6227531 27.1663821,25.6227531 27.3477771,25.8041481 L29.6152146,28.0715857 C29.7966096,28.2529807 29.7966096,28.5250732 29.6152146,28.7064682 C29.5245171,28.7971657 29.4338197,28.8425144 29.2977734,28.8425144 Z" id="Shape"></path>
                    <path d="M29.2977734,28.8425144 C29.1617272,28.8425144 29.0710297,28.7971657 28.9803321,28.7064682 C28.7989371,28.5250732 28.7989371,28.2529807 28.9803321,28.0715857 L31.2477697,25.8041481 C31.4291647,25.6227531 31.7012572,25.6227531 31.8826522,25.8041481 C32.0640472,25.9855431 32.0640472,26.2576356 31.8826522,26.4390306 L29.6152146,28.7064682 C29.5245171,28.7971657 29.4338197,28.8425144 29.2977734,28.8425144 Z" id="Shape"></path>
                </g>
            </g>
        </g>
    </g>
</svg>