<?xml version="1.0" encoding="UTF-8"?>
<svg width="72px" height="72px" viewBox="0 0 72 72" version="1.1" xmlns="http://www.w3.org/2000/svg" xmlns:xlink="http://www.w3.org/1999/xlink">
    <!-- Generator: Sketch 51.1 (57501) - http://www.bohemiancoding.com/sketch -->
    <title>Group 13</title>
    <desc>Created with Sketch.</desc>
    <defs></defs>
    <g id="视觉" stroke="none" stroke-width="1" fill="none" fill-rule="evenodd">
        <g id="切图" transform="translate(-417.000000, -65.000000)">
            <g id="Group-13" transform="translate(418.000000, 66.000000)">
                <g id="icon1-copy" stroke="#DDDDDD">
                    <circle id="Oval-3" cx="35" cy="35" r="35"></circle>
                </g>
                <path d="M35.6031435,17.0457228 L19,20.5297597 L19,33.8853317 C19.52337,38.3966772 21.3941082,42.2224923 24.7158349,46.0947485 C27.4248949,49.252797 31.760852,51.9180617 35.5857617,52.9274067 C38.828481,51.8807991 42.437674,49.3768819 45.5441629,46.0352037 C48.9717456,42.3481218 50.8851959,38.5212896 51.3360877,33.903219 L51.3361339,20.5130899 L35.6031435,17.0457228 Z M53.336137,19.6217465 L53.3360874,33.9984186 C52.8187602,39.5437184 50.3812756,43.7693255 47.0089842,47.39693 C43.6366927,51.0245344 39.5182622,53.9122079 35.639043,55 C31.4702023,54.0479872 26.4291621,51.163804 23.1978352,47.39693 C19.9665082,43.630056 17.6004724,39.4079391 17,33.9984186 L17,19.6291749 C17,19.2076983 17.2953806,18.8439012 17.7078732,18.7573429 L35.6134538,15 L52.6370422,18.7517997 C53.0453544,18.841787 53.3361384,19.2036357 53.336137,19.6217465 Z" id="Combined-Shape" fill="#333333" fill-rule="nonzero"></path>
                <path d="M42.6565296,28.2928932 C43.0470539,27.9023689 43.6802189,27.9023689 44.0707431,28.2928932 C44.4612674,28.6834175 44.4612674,29.3165825 44.0707431,29.7071068 L35.0707431,38.7071068 C34.6802189,39.0976311 34.0470539,39.0976311 33.6565296,38.7071068 L27.9292569,32.9798341 C27.5387326,32.5893098 27.5387326,31.9561448 27.9292569,31.5656205 C28.3197811,31.1750962 28.9529461,31.1750962 29.3434704,31.5656205 L34.3636364,36.5857864 L42.6565296,28.2928932 Z" id="Path-11" fill="#333333" fill-rule="nonzero"></path>
            </g>
        </g>
    </g>
</svg>