<?xml version="1.0" encoding="UTF-8"?>
<svg width="72px" height="72px" viewBox="0 0 72 72" version="1.1" xmlns="http://www.w3.org/2000/svg" xmlns:xlink="http://www.w3.org/1999/xlink">
    <!-- Generator: Sketch 51.1 (57501) - http://www.bohemiancoding.com/sketch -->
    <title>icon1</title>
    <desc>Created with Sketch.</desc>
    <defs></defs>
    <g id="视觉" stroke="none" stroke-width="1" fill="none" fill-rule="evenodd">
        <g id="切图" transform="translate(-300.000000, -65.000000)">
            <g id="icon1" transform="translate(301.000000, 66.000000)">
                <circle id="Oval-3" stroke="#DDDDDD" cx="35" cy="35" r="35"></circle>
                <g id="Group-10" transform="translate(15.000000, 19.000000)">
                    <path d="M2,2 L2,26 L38,26 L38,2 L2,2 Z M2,-4.93038066e-32 L38,-4.4408921e-16 C39.1045695,-6.46995335e-16 40,0.8954305 40,2 L40,26 C40,27.1045695 39.1045695,28 38,28 L2,28 C0.8954305,28 1.3527075e-16,27.1045695 0,26 L0,2 C-1.3527075e-16,0.8954305 0.8954305,2.02906125e-16 2,-4.93038066e-32 Z" id="Rectangle-2" fill="#333333" fill-rule="nonzero"></path>
                    <path d="M21,13.5 L21,14.5 C21,19.1943497 17.1942511,23 12.5,23 C7.80856144,23 4,19.1915372 4,14.5 C4,9.80565034 7.80574891,6 12.5,6 L13.5,6 L13.5,13.5 L21,13.5 Z M11.5,8.07645586 C8.38502042,8.55748864 6,11.2503012 6,14.5 C6,18.0869561 8.91311934,21 12.5,21 C15.7496367,21 18.4425086,18.6150324 18.923545,15.5 L11.5,15.5 L11.5,8.07645586 Z" id="Page-1" fill="#333333" fill-rule="nonzero" transform="translate(12.500000, 14.500000) rotate(-90.000000) translate(-12.500000, -14.500000) "></path>
                    <path d="M24.8346094,21.5508422 C24.5303877,22.0117843 23.9100998,22.1388312 23.4491578,21.8346094 C22.9882157,21.5303877 22.8611688,20.9100998 23.1653906,20.4491578 L26.4653906,15.4491578 C26.843575,14.8761512 27.6734656,14.8459274 28.0923294,15.3899064 L31.15,19.3609072 L34.2076706,15.3899064 C34.544616,14.952315 35.1725022,14.8707253 35.6100936,15.2076706 C36.047685,15.544616 36.1292747,16.1725022 35.7923294,16.6100936 L31.9423294,21.6100936 C31.5420254,22.1299688 30.7579746,22.1299688 30.3576706,21.6100936 L27.3626576,17.7204662 L24.8346094,21.5508422 Z" id="Path-2" fill="#333333" fill-rule="nonzero"></path>
                    <path d="M29,8.65116279 C28.4477153,8.65116279 28,8.20344754 28,7.65116279 C28,7.09887804 28.4477153,6.65116279 29,6.65116279 L34.8064516,6.65116279 C35.3587364,6.65116279 35.8064516,7.09887804 35.8064516,7.65116279 C35.8064516,8.20344754 35.3587364,8.65116279 34.8064516,8.65116279 L29,8.65116279 Z" id="Path-4" fill="#333333" fill-rule="nonzero"></path>
                    <path d="M35,10 C35.5522847,10 36,10.4477153 36,11 C36,11.5522847 35.5522847,12 35,12 L24,12 C23.4477153,12 23,11.5522847 23,11 C23,10.4477153 23.4477153,10 24,10 L35,10 Z" id="Path-5" fill="#333333" fill-rule="nonzero"></path>
                    <path d="M11,33 L14,27" id="Path-3" stroke="#333333" stroke-width="2" stroke-linecap="round"></path>
                    <path d="M26,33 L29,27" id="Path-3-Copy" stroke="#333333" stroke-width="2" stroke-linecap="round" transform="translate(27.500000, 30.000000) scale(-1, 1) translate(-27.500000, -30.000000) "></path>
                </g>
            </g>
        </g>
    </g>
</svg>