<?xml version="1.0" encoding="UTF-8"?>
<svg width="70px" height="70px" viewBox="0 0 70 70" version="1.1" xmlns="http://www.w3.org/2000/svg" xmlns:xlink="http://www.w3.org/1999/xlink">
    <!-- Generator: Sketch 51.1 (57501) - http://www.bohemiancoding.com/sketch -->
    <title>Group 11</title>
    <desc>Created with Sketch.</desc>
    <defs></defs>
    <g id="视觉" stroke="none" stroke-width="1" fill="none" fill-rule="evenodd">
        <g id="切图" transform="translate(-53.000000, -66.000000)">
            <g id="Group-11" transform="translate(53.000000, 66.000000)">
                <g id="icon1" stroke="#DDDDDD">
                    <circle id="Oval-3" cx="35" cy="35" r="34.5"></circle>
                </g>
                <g id="Group-10" transform="translate(16.000000, 17.000000)" fill="#333333">
                    <path d="M2,28 L2,8 L36,8 L36,28 L28.55,28 L28.55,30 L36.1,30 C37.149341,30 38,29.1045695 38,28 L38,8 C38,6.8954305 37.149341,6 36.1,6 L1.9,6 C0.850658975,6 0,6.8954305 0,8 L0,28 C0,29.1045695 0.850658975,30 1.9,30 L9.45,30 L9.45,28 L2,28 Z" id="Rectangle-4" fill-rule="nonzero"></path>
                    <path d="M10,22 L10,34 L28,34 L28,22 L10,22 Z M10,20 L28,20 C29.1045695,20 30,20.8954305 30,22 L30,34 C30,35.1045695 29.1045695,36 28,36 L10,36 C8.8954305,36 8,35.1045695 8,34 L8,22 C8,20.8954305 8.8954305,20 10,20 Z" id="Rectangle-4-Copy" fill-rule="nonzero"></path>
                    <path d="M10,2 L10,6 L28,6 L28,2 L10,2 Z M10,0 L28,0 C29.1045695,-2.02906125e-16 30,0.8954305 30,2 L30,6 C30,7.1045695 29.1045695,8 28,8 L10,8 C8.8954305,8 8,7.1045695 8,6 L8,2 C8,0.8954305 8.8954305,2.02906125e-16 10,0 Z" id="Rectangle-4-Copy-2" fill-rule="nonzero"></path>
                    <rect id="Rectangle-7" x="5" y="20" width="28" height="2" rx="1"></rect>
                    <rect id="Rectangle-8" x="5" y="12" width="8" height="2" rx="1"></rect>
                </g>
            </g>
        </g>
    </g>
</svg>